# xmcd
#
# Track frame offsets: 
#        150
#        22825
#        48562
#        72837
#        97312
#        121775
#        143750
#        171562
#        197362
#        219537
#        257650
#
# Disc length: 3684 seconds
#
# Revision: 3
# Processed by: cddbd v1.5.1PL0 Copyright (c) Steve Scherf et al.
# Submitted via: ExactAudioCopy v0.95a5
#
DISCID=9d0e620b
DTITLE=中島美雪 - Love Or Nothing
DYEAR=1994
DGENRE=Vocal
TTITLE0=天空和妳之間
TTITLE1=那碼頭上已不再亮起燈光
TTITLE2=薔薇色的未來
TTITLE3=向日葵
TTITLE4=天線之城
TTITLE5=天秤
TTITLE6=流星
TTITLE7=終究是夢啊
TTITLE8=不如變成風
TTITLE9=You Never Need Me
TTITLE10=還別睡
EXTD=YEAR: 1994 ID3G:  13
EXTT0=
EXTT1=
EXTT2=
EXTT3=
EXTT4=
EXTT5=
EXTT6=
EXTT7=
EXTT8=
EXTT9=
EXTT10=
PLAYORDER=
